<?xml version="1.0" standalone="no"?><!DOCTYPE svg PUBLIC "-//W3C//DTD SVG 1.1//EN" "http://www.w3.org/Graphics/SVG/1.1/DTD/svg11.dtd"><svg t="1668342278571" class="icon" viewBox="0 0 1024 1024" version="1.1" xmlns="http://www.w3.org/2000/svg" p-id="3585" xmlns:xlink="http://www.w3.org/1999/xlink" width="200" height="200"><path d="M85.333333 597.333333a42.794667 42.794667 0 0 1-34.133333-68.266666C59.306667 517.973333 257.706667 256 512 256s452.693333 261.973333 460.8 273.066667c14.08 18.773333 10.24 45.653333-8.533333 59.733333-18.773333 14.08-45.653333 10.24-59.733334-8.533333-1.706667-2.56-181.333333-238.933333-392.533333-238.933334-211.626667 0-390.826667 236.373333-392.533333 238.933334-8.533333 11.093333-21.333333 17.066667-34.133334 17.066666z" p-id="3586"></path><path d="M512 725.333333c-117.76 0-213.333333-95.573333-213.333333-213.333333s95.573333-213.333333 213.333333-213.333333 213.333333 95.573333 213.333333 213.333333-95.573333 213.333333-213.333333 213.333333z m0-341.333333c-70.4 0-128 57.6-128 128s57.6 128 128 128 128-57.6 128-128-57.6-128-128-128z" p-id="3587"></path></svg>